<svg width="88" height="46" viewBox="0 0 88 46" fill="none" xmlns="http://www.w3.org/2000/svg">
<g id="an_eye">
<g id="eye">
<g id="sclera_and_vessels">
<path id="sclera" d="M44 1C28 1 16 23 0 23C16 23 28 45 44 45C60 45 72 23 88 23C72 23 60 1 44 1Z" fill="white"/>
<path id="vessels" d="M44 1C28 1 16 23 0 23C16 23 28 45 44 45C60 45 72 23 88 23C72 23 60 1 44 1Z" fill="url(#paint0_radial_34_16)"/>
<path id="sclera_shadow" d="M44 1C28 1 16 23 0 23C16 23 28 45 44 45C60 45 72 23 88 23C72 23 60 1 44 1Z" fill="url(#paint1_radial_34_16)"/>
</g>
<g id="cornea_mask">
<mask id="mask0_34_16" style="mask-type:alpha" maskUnits="userSpaceOnUse" x="0" y="1" width="88" height="44">
<path id="sclera_mask" d="M44 1C28 1 16 23 0 23C16 23 28 45 44 45C60 45 72 23 88 23C72 23 60 1 44 1Z" fill="white"/>
</mask>
<g mask="url(#mask0_34_16)">
<g id="cornea">
<g id="iris_and_overlay">
<circle id="iris" cx="44" cy="23" r="22" fill="#8BACDD"/>
<circle id="overlay" cx="44" cy="23" r="22" fill="url(#paint2_radial_34_16)"/>
</g>
<g id="pupil_and_dilator">
<path id="dilator" d="M44 1L44.8373 7.02353L46.2996 1.12052L46.5027 7.19857L48.5741 1.48075L48.1407 7.54673L50.7984 2.07676L49.7333 8.06421L52.9482 2.902L51.2631 8.74532L55 3.94744L52.7134 9.58261L56.9313 5.20163L54.0681 10.5669L58.7209 6.65081L55.3126 11.6874L60.3492 8.27913L56.4331 12.9319L61.7984 10.0687L57.4174 14.2866L63.0526 12L58.2547 15.7369L64.098 14.0518L58.9358 17.2667L64.9232 16.2016L59.4533 18.8593L65.5192 18.4259L59.8014 20.4973L65.8795 20.7004L59.9765 22.1627L66 23L59.9765 23.8373L65.8795 25.2996L59.8014 25.5027L65.5192 27.5741L59.4533 27.1407L64.9232 29.7984L58.9358 28.7333L64.098 31.9482L58.2547 30.2631L63.0526 34L57.4174 31.7134L61.7984 35.9313L56.4331 33.0681L60.3492 37.7209L55.3126 34.3126L58.7209 39.3492L54.0681 35.4331L56.9313 40.7984L52.7134 36.4174L55 42.0526L51.2631 37.2547L52.9482 43.098L49.7333 37.9358L50.7984 43.9232L48.1407 38.4533L48.5741 44.5192L46.5027 38.8014L46.2996 44.8795L44.8373 38.9765L44 45L43.1627 38.9765L41.7004 44.8795L41.4973 38.8014L39.4259 44.5192L39.8593 38.4533L37.2016 43.9232L38.2667 37.9358L35.0518 43.098L36.7369 37.2547L33 42.0526L35.2866 36.4174L31.0687 40.7984L33.9319 35.4331L29.2791 39.3492L32.6874 34.3126L27.6508 37.7209L31.5669 33.0681L26.2016 35.9313L30.5826 31.7134L24.9474 34L29.7453 30.2631L23.902 31.9482L29.0642 28.7333L23.0768 29.7984L28.5467 27.1407L22.4808 27.5741L28.1986 25.5027L22.1205 25.2996L28.0235 23.8373L22 23L28.0235 22.1627L22.1205 20.7004L28.1986 20.4973L22.4808 18.4259L28.5467 18.8593L23.0768 16.2016L29.0642 17.2667L23.902 14.0518L29.7453 15.7369L24.9474 12L30.5826 14.2866L26.2016 10.0687L31.5669 12.9319L27.6508 8.27913L32.6874 11.6874L29.2791 6.65081L33.9319 10.5669L31.0687 5.20163L35.2866 9.58261L33 3.94744L36.7369 8.74532L35.0518 2.902L38.2667 8.06421L37.2016 2.07676L39.8593 7.54673L39.4259 1.48075L41.4973 7.19857L41.7004 1.12052L43.1627 7.02353L44 1Z" fill="url(#paint3_radial_34_16)"/>
<circle id="pupil" cx="44" cy="23" r="16" fill="black"/>
<circle id="overlay_2" cx="44" cy="23" r="16" fill="url(#paint4_radial_34_16)"/>
</g>
</g>
</g>
</g>
<circle id="lower_cornea_flare" cx="34" cy="35" r="2" fill="white" fill-opacity="0.64"/>
<circle id="upper_cornea_flare" cx="52" cy="13" r="4" fill="white" fill-opacity="0.75"/>
<g id="lacrimal_caruncle">
<g id="caruncle">
<path id="caruncle_corner" d="M79 21C79 21 84 23 86 23C84 23 79 25 79 25C79 25 79 25 79 23C79 21 79 21 79 21Z" fill="#FFBBBB"/>
<path id="caruncle_corner_shadow" d="M79 21C79 21 84 23 86 23C84 23 79 25 79 25C79 25 79 25 79 23C79 21 79 21 79 21Z" fill="black" fill-opacity="0.125"/>
<circle id="caruncle_circle" cx="79" cy="23" r="2" fill="#FFBBBB"/>
<circle id="caruncle_circle_shadow" cx="79" cy="23" r="2" fill="url(#paint5_radial_34_16)"/>
</g>
<circle id="caruncle_flare" cx="80" cy="22" r="1" fill="white" fill-opacity="0.75"/>
</g>
<g id="lower_eyelid">
<path id="eyelid" d="M44 45C28 45 16 23 0 23C16 23 28 43 44 43C60 43 72 23 88 23C72 23 60 45 44 45Z" fill="#FBDCAE"/>
<path id="eyelid_shadow" d="M44 45C28 45 16 23 0 23C16 23 28 43 44 43C60 43 72 23 88 23C72 23 60 45 44 45Z" fill="url(#paint6_radial_34_16)"/>
</g>
<g id="upper_eyelid">
<path id="eyelid_2" d="M44 1C28 1 16 23 0 23C16 23 28 9 44 9C60 9 72 23 88 23C72 23 60 1 44 1Z" fill="#FBDCAE"/>
<path id="eyelid_shadow_2" d="M44 1C28 1 16 23 0 23C16 23 28 9 44 9C60 9 72 23 88 23C72 23 60 1 44 1Z" fill="url(#paint7_radial_34_16)"/>
</g>
<g id="outline">
<path d="M44 1C28 1 16 23 0 23C16 23 28 45 44 45C60 45 72 23 88 23C72 23 60 1 44 1Z" stroke="#FBDCAE"/>
<path d="M44 1C28 1 16 23 0 23C16 23 28 45 44 45C60 45 72 23 88 23C72 23 60 1 44 1Z" stroke="black" stroke-opacity="0.2"/>
</g>
</g>
</g>
<defs>
<radialGradient id="paint0_radial_34_16" cx="0" cy="0" r="1" gradientUnits="userSpaceOnUse" gradientTransform="translate(44 23) rotate(-180) scale(29.5 27.7888)">
<stop offset="0.338542" stop-color="#FF0000" stop-opacity="0"/>
<stop offset="1" stop-color="#FF0000" stop-opacity="0.125"/>
</radialGradient>
<radialGradient id="paint1_radial_34_16" cx="0" cy="0" r="1" gradientUnits="userSpaceOnUse" gradientTransform="translate(44 23) rotate(-180) scale(29.5 27.7888)">
<stop offset="0.338542" stop-opacity="0"/>
<stop offset="1" stop-opacity="0.125"/>
</radialGradient>
<radialGradient id="paint2_radial_34_16" cx="0" cy="0" r="1" gradientUnits="userSpaceOnUse" gradientTransform="translate(44 23) rotate(90) scale(22)">
<stop offset="0.901042" stop-color="white" stop-opacity="0"/>
<stop offset="0.977273" stop-color="white" stop-opacity="0.25"/>
</radialGradient>
<radialGradient id="paint3_radial_34_16" cx="0" cy="0" r="1" gradientUnits="userSpaceOnUse" gradientTransform="translate(44 23) rotate(90) scale(22 43.9499)">
<stop stop-color="#FFD700" stop-opacity="0.28"/>
<stop offset="1" stop-color="#FF0000" stop-opacity="0"/>
</radialGradient>
<radialGradient id="paint4_radial_34_16" cx="0" cy="0" r="1" gradientUnits="userSpaceOnUse" gradientTransform="translate(44 23) rotate(90) scale(16)">
<stop offset="0.71875" stop-color="white" stop-opacity="0"/>
<stop offset="1" stop-color="white" stop-opacity="0.125"/>
</radialGradient>
<radialGradient id="paint5_radial_34_16" cx="0" cy="0" r="1" gradientUnits="userSpaceOnUse" gradientTransform="translate(79 23) rotate(90) scale(2)">
<stop stop-color="white" stop-opacity="0.25"/>
<stop offset="1" stop-opacity="0.125"/>
</radialGradient>
<radialGradient id="paint6_radial_34_16" cx="0" cy="0" r="1" gradientUnits="userSpaceOnUse" gradientTransform="translate(44 23) rotate(90) scale(22 44)">
<stop stop-color="white" stop-opacity="0"/>
<stop offset="1" stop-opacity="0.25"/>
</radialGradient>
<radialGradient id="paint7_radial_34_16" cx="0" cy="0" r="1" gradientUnits="userSpaceOnUse" gradientTransform="translate(44 23) rotate(-90) scale(22 44)">
<stop stop-color="white" stop-opacity="0"/>
<stop offset="1" stop-opacity="0.25"/>
</radialGradient>
</defs>
</svg>
