<svg width="264" height="178" viewBox="0 0 264 178" fill="none" xmlns="http://www.w3.org/2000/svg">
<g id="eyes">
<g id="eye_01">
<g id="cornea">
<path id="sclera" d="M88 133C72 133 60 155 44 155C60 155 72 177 88 177C104 177 116 155 132 155C116 155 104 133 88 133Z" fill="#EB307C"/>
<circle id="iris" cx="88" cy="155" r="22" fill="#FFDC38"/>
<circle id="pupil" cx="88" cy="155" r="16" fill="#65318F"/>
<circle id="lower_cornea_flare" cx="78" cy="167" r="2" fill="white"/>
<circle id="upper_cornea_flare" cx="96" cy="145" r="4" fill="white"/>
</g>
<g id="lacrimal_caruncle">
<path id="caruncle_part" d="M123 153C123 153 128 155 130 155C128 155 123 157 123 157C123 157 123 157 123 155C123 153 123 153 123 153Z" fill="#8EC549"/>
<circle id="caruncle" cx="123" cy="155" r="2" fill="#8EC549"/>
<circle id="caruncle_flare" cx="124" cy="154" r="1" fill="white"/>
</g>
<path id="eyelid" d="M88 133C72 133 60 155 44 155C60 155 72 141 88 141C104 141 116 155 132 155C116 155 104 133 88 133Z" fill="#079348"/>
<path id="outline" d="M88 133C72 133 60 155 44 155C60 155 72 177 88 177C104 177 116 155 132 155C116 155 104 133 88 133Z" stroke="#079348"/>
</g>
<g id="eye_02">
<g id="cornea_2">
<path id="sclera_2" d="M176 133C160 133 148 155 132 155C148 155 160 177 176 177C192 177 204 155 220 155C204 155 192 133 176 133Z" fill="#EB307C"/>
<circle id="iris_2" cx="176" cy="155" r="22" fill="#FFDC38"/>
<circle id="pupil_2" cx="176" cy="155" r="16" fill="#65318F"/>
<circle id="lower_cornea_flare_2" cx="166" cy="167" r="2" fill="white"/>
<circle id="upper_cornea_flare_2" cx="184" cy="145" r="4" fill="white"/>
</g>
<g id="lacrimal_caruncle_2">
<path id="caruncle_part_2" d="M211 153C211 153 216 155 218 155C216 155 211 157 211 157C211 157 211 157 211 155C211 153 211 153 211 153Z" fill="#8EC549"/>
<circle id="caruncle_2" cx="211" cy="155" r="2" fill="#8EC549"/>
<circle id="caruncle_flare_2" cx="212" cy="154" r="1" fill="white"/>
</g>
<path id="eyelid_2" d="M176 133C160 133 148 155 132 155C148 155 160 141 176 141C192 141 204 155 220 155C204 155 192 133 176 133Z" fill="#079348"/>
<path id="outline_2" d="M176 133C160 133 148 155 132 155C148 155 160 177 176 177C192 177 204 155 220 155C204 155 192 133 176 133Z" stroke="#079348"/>
</g>
<g id="eye_03">
<g id="cornea_3">
<path id="sclera_3" d="M44 111C28 111 16 133 0 133C16 133 28 155 44 155C60 155 72 133 88 133C72 133 60 111 44 111Z" fill="#EB307C"/>
<circle id="iris_3" cx="44" cy="133" r="22" fill="#FFDC38"/>
<circle id="pupil_3" cx="44" cy="133" r="16" fill="#65318F"/>
<circle id="lower_cornea_flare_3" cx="34" cy="145" r="2" fill="white"/>
<circle id="upper_cornea_flare_3" cx="52" cy="123" r="4" fill="white"/>
</g>
<g id="lacrimal_caruncle_3">
<path id="caruncle_part_3" d="M79 131C79 131 84 133 86 133C84 133 79 135 79 135C79 135 79 135 79 133C79 131 79 131 79 131Z" fill="#8EC549"/>
<circle id="caruncle_3" cx="79" cy="133" r="2" fill="#8EC549"/>
<circle id="caruncle_flare_3" cx="80" cy="132" r="1" fill="white"/>
</g>
<path id="eyelid_3" d="M44 111C28 111 16 133 0 133C16 133 28 119 44 119C60 119 72 133 88 133C72 133 60 111 44 111Z" fill="#079348"/>
<path id="outline_3" d="M44 111C28 111 16 133 0 133C16 133 28 155 44 155C60 155 72 133 88 133C72 133 60 111 44 111Z" stroke="#079348"/>
</g>
<g id="eye_04">
<g id="cornea_4">
<path id="sclera_4" d="M132 111C116 111 104 133 88 133C104 133 116 155 132 155C148 155 160 133 176 133C160 133 148 111 132 111Z" fill="#EB307C"/>
<circle id="iris_4" cx="132" cy="133" r="22" fill="#FFDC38"/>
<circle id="pupil_4" cx="132" cy="133" r="16" fill="#65318F"/>
<circle id="lower_cornea_flare_4" cx="122" cy="145" r="2" fill="white"/>
<circle id="upper_cornea_flare_4" cx="140" cy="123" r="4" fill="white"/>
</g>
<g id="lacrimal_caruncle_4">
<path id="caruncle_part_4" d="M167 131C167 131 172 133 174 133C172 133 167 135 167 135C167 135 167 135 167 133C167 131 167 131 167 131Z" fill="#8EC549"/>
<circle id="caruncle_4" cx="167" cy="133" r="2" fill="#8EC549"/>
<circle id="caruncle_flare_4" cx="168" cy="132" r="1" fill="white"/>
</g>
<path id="eyelid_4" d="M132 111C116 111 104 133 88 133C104 133 116 119 132 119C148 119 160 133 176 133C160 133 148 111 132 111Z" fill="#079348"/>
<path id="outline_4" d="M132 111C116 111 104 133 88 133C104 133 116 155 132 155C148 155 160 133 176 133C160 133 148 111 132 111Z" stroke="#079348"/>
</g>
<g id="eye_05">
<g id="cornea_5">
<path id="sclera_5" d="M220 111C204 111 192 133 176 133C192 133 204 155 220 155C236 155 248 133 264 133C248 133 236 111 220 111Z" fill="#EB307C"/>
<circle id="iris_5" cx="220" cy="133" r="22" fill="#FFDC38"/>
<circle id="pupil_5" cx="220" cy="133" r="16" fill="#65318F"/>
<circle id="lower_cornea_flare_5" cx="210" cy="145" r="2" fill="white"/>
<circle id="upper_cornea_flare_5" cx="228" cy="123" r="4" fill="white"/>
</g>
<g id="lacrimal_caruncle_5">
<path id="caruncle_part_5" d="M255 131C255 131 260 133 262 133C260 133 255 135 255 135C255 135 255 135 255 133C255 131 255 131 255 131Z" fill="#8EC549"/>
<circle id="caruncle_5" cx="255" cy="133" r="2" fill="#8EC549"/>
<circle id="caruncle_flare_5" cx="256" cy="132" r="1" fill="white"/>
</g>
<path id="eyelid_5" d="M220 111C204 111 192 133 176 133C192 133 204 119 220 119C236 119 248 133 264 133C248 133 236 111 220 111Z" fill="#079348"/>
<path id="outline_5" d="M220 111C204 111 192 133 176 133C192 133 204 155 220 155C236 155 248 133 264 133C248 133 236 111 220 111Z" stroke="#079348"/>
</g>
<g id="eye_06">
<g id="cornea_6">
<path id="sclera_6" d="M88 89C72 89 60 111 44 111C60 111 72 133 88 133C104 133 116 111 132 111C116 111 104 89 88 89Z" fill="#EB307C"/>
<circle id="iris_6" cx="88" cy="111" r="22" fill="#FFDC38"/>
<circle id="pupil_6" cx="88" cy="111" r="16" fill="#65318F"/>
<circle id="lower_cornea_flare_6" cx="78" cy="123" r="2" fill="white"/>
<circle id="upper_cornea_flare_6" cx="96" cy="101" r="4" fill="white"/>
</g>
<g id="lacrimal_caruncle_6">
<path id="caruncle_part_6" d="M123 109C123 109 128 111 130 111C128 111 123 113 123 113C123 113 123 113 123 111C123 109 123 109 123 109Z" fill="#8EC549"/>
<circle id="caruncle_6" cx="123" cy="111" r="2" fill="#8EC549"/>
<circle id="caruncle_flare_6" cx="124" cy="110" r="1" fill="white"/>
</g>
<path id="eyelid_6" d="M88 89C72 89 60 111 44 111C60 111 72 97 88 97C104 97 116 111 132 111C116 111 104 89 88 89Z" fill="#079348"/>
<path id="outline_6" d="M88 89C72 89 60 111 44 111C60 111 72 133 88 133C104 133 116 111 132 111C116 111 104 89 88 89Z" stroke="#079348"/>
</g>
<g id="eye_07">
<g id="cornea_7">
<path id="sclera_7" d="M176 89C160 89 148 111 132 111C148 111 160 133 176 133C192 133 204 111 220 111C204 111 192 89 176 89Z" fill="#EB307C"/>
<circle id="iris_7" cx="176" cy="111" r="22" fill="#FFDC38"/>
<circle id="pupil_7" cx="176" cy="111" r="16" fill="#65318F"/>
<circle id="lower_cornea_flare_7" cx="166" cy="123" r="2" fill="white"/>
<circle id="upper_cornea_flare_7" cx="184" cy="101" r="4" fill="white"/>
</g>
<g id="lacrimal_caruncle_7">
<path id="caruncle_part_7" d="M211 109C211 109 216 111 218 111C216 111 211 113 211 113C211 113 211 113 211 111C211 109 211 109 211 109Z" fill="#8EC549"/>
<circle id="caruncle_7" cx="211" cy="111" r="2" fill="#8EC549"/>
<circle id="caruncle_flare_7" cx="212" cy="110" r="1" fill="white"/>
</g>
<path id="eyelid_7" d="M176 89C160 89 148 111 132 111C148 111 160 97 176 97C192 97 204 111 220 111C204 111 192 89 176 89Z" fill="#079348"/>
<path id="outline_7" d="M176 89C160 89 148 111 132 111C148 111 160 133 176 133C192 133 204 111 220 111C204 111 192 89 176 89Z" stroke="#079348"/>
</g>
<g id="eye_08">
<g id="cornea_8">
<path id="sclera_8" d="M44 67C28 67 16 89 0 89C16 89 28 111 44 111C60 111 72 89 88 89C72 89 60 67 44 67Z" fill="#EB307C"/>
<circle id="iris_8" cx="44" cy="89" r="22" fill="#FFDC38"/>
<circle id="pupil_8" cx="44" cy="89" r="16" fill="#65318F"/>
<circle id="lower_cornea_flare_8" cx="34" cy="101" r="2" fill="white"/>
<circle id="upper_cornea_flare_8" cx="52" cy="79" r="4" fill="white"/>
</g>
<g id="lacrimal_caruncle_8">
<path id="caruncle_part_8" d="M79 87C79 87 84 89 86 89C84 89 79 91 79 91C79 91 79 91 79 89C79 87 79 87 79 87Z" fill="#8EC549"/>
<circle id="caruncle_8" cx="79" cy="89" r="2" fill="#8EC549"/>
<circle id="caruncle_flare_8" cx="80" cy="88" r="1" fill="white"/>
</g>
<path id="eyelid_8" d="M44 67C28 67 16 89 0 89C16 89 28 75 44 75C60 75 72 89 88 89C72 89 60 67 44 67Z" fill="#079348"/>
<path id="outline_8" d="M44 67C28 67 16 89 0 89C16 89 28 111 44 111C60 111 72 89 88 89C72 89 60 67 44 67Z" stroke="#079348"/>
</g>
<g id="eye_09">
<g id="cornea_9">
<path id="sclera_9" d="M132 67C116 67 104 89 88 89C104 89 116 111 132 111C148 111 160 89 176 89C160 89 148 67 132 67Z" fill="#EB307C"/>
<circle id="iris_9" cx="132" cy="89" r="22" fill="#FFDC38"/>
<circle id="pupil_9" cx="132" cy="89" r="16" fill="#65318F"/>
<circle id="lower_cornea_flare_9" cx="122" cy="101" r="2" fill="white"/>
<circle id="upper_cornea_flare_9" cx="140" cy="79" r="4" fill="white"/>
</g>
<g id="lacrimal_caruncle_9">
<path id="caruncle_part_9" d="M167 87C167 87 172 89 174 89C172 89 167 91 167 91C167 91 167 91 167 89C167 87 167 87 167 87Z" fill="#8EC549"/>
<circle id="caruncle_9" cx="167" cy="89" r="2" fill="#8EC549"/>
<circle id="caruncle_flare_9" cx="168" cy="88" r="1" fill="white"/>
</g>
<path id="eyelid_9" d="M132 67C116 67 104 89 88 89C104 89 116 75 132 75C148 75 160 89 176 89C160 89 148 67 132 67Z" fill="#079348"/>
<path id="outline_9" d="M132 67C116 67 104 89 88 89C104 89 116 111 132 111C148 111 160 89 176 89C160 89 148 67 132 67Z" stroke="#079348"/>
</g>
<g id="eye_10">
<g id="cornea_10">
<path id="sclera_10" d="M220 67C204 67 192 89 176 89C192 89 204 111 220 111C236 111 248 89 264 89C248 89 236 67 220 67Z" fill="#EB307C"/>
<circle id="iris_10" cx="220" cy="89" r="22" fill="#FFDC38"/>
<circle id="pupil_10" cx="220" cy="89" r="16" fill="#65318F"/>
<circle id="lower_cornea_flare_10" cx="210" cy="101" r="2" fill="white"/>
<circle id="upper_cornea_flare_10" cx="228" cy="79" r="4" fill="white"/>
</g>
<g id="lacrimal_caruncle_10">
<path id="caruncle_part_10" d="M255 87C255 87 260 89 262 89C260 89 255 91 255 91C255 91 255 91 255 89C255 87 255 87 255 87Z" fill="#8EC549"/>
<circle id="caruncle_10" cx="255" cy="89" r="2" fill="#8EC549"/>
<circle id="caruncle_flare_10" cx="256" cy="88" r="1" fill="white"/>
</g>
<path id="eyelid_10" d="M220 67C204 67 192 89 176 89C192 89 204 75 220 75C236 75 248 89 264 89C248 89 236 67 220 67Z" fill="#079348"/>
<path id="outline_10" d="M220 67C204 67 192 89 176 89C192 89 204 111 220 111C236 111 248 89 264 89C248 89 236 67 220 67Z" stroke="#079348"/>
</g>
<g id="eye_11">
<g id="cornea_11">
<path id="sclera_11" d="M88 45C72 45 60 67 44 67C60 67 72 89 88 89C104 89 116 67 132 67C116 67 104 45 88 45Z" fill="#EB307C"/>
<circle id="iris_11" cx="88" cy="67" r="22" fill="#FFDC38"/>
<circle id="pupil_11" cx="88" cy="67" r="16" fill="#65318F"/>
<circle id="lower_cornea_flare_11" cx="78" cy="79" r="2" fill="white"/>
<circle id="upper_cornea_flare_11" cx="96" cy="57" r="4" fill="white"/>
</g>
<g id="lacrimal_caruncle_11">
<path id="caruncle_part_11" d="M123 65C123 65 128 67 130 67C128 67 123 69 123 69C123 69 123 69 123 67C123 65 123 65 123 65Z" fill="#8EC549"/>
<circle id="caruncle_11" cx="123" cy="67" r="2" fill="#8EC549"/>
<circle id="caruncle_flare_11" cx="124" cy="66" r="1" fill="white"/>
</g>
<path id="eyelid_11" d="M88 45C72 45 60 67 44 67C60 67 72 53 88 53C104 53 116 67 132 67C116 67 104 45 88 45Z" fill="#079348"/>
<path id="outline_11" d="M88 45C72 45 60 67 44 67C60 67 72 89 88 89C104 89 116 67 132 67C116 67 104 45 88 45Z" stroke="#079348"/>
</g>
<g id="eye_12">
<g id="cornea_12">
<path id="sclera_12" d="M176 45C160 45 148 67 132 67C148 67 160 89 176 89C192 89 204 67 220 67C204 67 192 45 176 45Z" fill="#EB307C"/>
<circle id="iris_12" cx="176" cy="67" r="22" fill="#FFDC38"/>
<circle id="pupil_12" cx="176" cy="67" r="16" fill="#65318F"/>
<circle id="lower_cornea_flare_12" cx="166" cy="79" r="2" fill="white"/>
<circle id="upper_cornea_flare_12" cx="184" cy="57" r="4" fill="white"/>
</g>
<g id="lacrimal_caruncle_12">
<path id="caruncle_part_12" d="M211 65C211 65 216 67 218 67C216 67 211 69 211 69C211 69 211 69 211 67C211 65 211 65 211 65Z" fill="#8EC549"/>
<circle id="caruncle_12" cx="211" cy="67" r="2" fill="#8EC549"/>
<circle id="caruncle_flare_12" cx="212" cy="66" r="1" fill="white"/>
</g>
<path id="eyelid_12" d="M176 45C160 45 148 67 132 67C148 67 160 53 176 53C192 53 204 67 220 67C204 67 192 45 176 45Z" fill="#079348"/>
<path id="outline_12" d="M176 45C160 45 148 67 132 67C148 67 160 89 176 89C192 89 204 67 220 67C204 67 192 45 176 45Z" stroke="#079348"/>
</g>
<g id="eye_13">
<g id="cornea_13">
<path id="sclera_13" d="M44 23C28 23 16 45 0 45C16 45 28 67 44 67C60 67 72 45 88 45C72 45 60 23 44 23Z" fill="#EB307C"/>
<circle id="iris_13" cx="44" cy="45" r="22" fill="#FFDC38"/>
<circle id="pupil_13" cx="44" cy="45" r="16" fill="#65318F"/>
<circle id="lower_cornea_flare_13" cx="34" cy="57" r="2" fill="white"/>
<circle id="upper_cornea_flare_13" cx="52" cy="35" r="4" fill="white"/>
</g>
<g id="lacrimal_caruncle_13">
<path id="caruncle_part_13" d="M79 43C79 43 84 45 86 45C84 45 79 47 79 47C79 47 79 47 79 45C79 43 79 43 79 43Z" fill="#8EC549"/>
<circle id="caruncle_13" cx="79" cy="45" r="2" fill="#8EC549"/>
<circle id="caruncle_flare_13" cx="80" cy="44" r="1" fill="white"/>
</g>
<path id="eyelid_13" d="M44 23C28 23 16 45 0 45C16 45 28 31 44 31C60 31 72 45 88 45C72 45 60 23 44 23Z" fill="#079348"/>
<path id="outline_13" d="M44 23C28 23 16 45 0 45C16 45 28 67 44 67C60 67 72 45 88 45C72 45 60 23 44 23Z" stroke="#079348"/>
</g>
<g id="eye_14">
<g id="cornea_14">
<path id="sclera_14" d="M132 23C116 23 104 45 88 45C104 45 116 67 132 67C148 67 160 45 176 45C160 45 148 23 132 23Z" fill="#EB307C"/>
<circle id="iris_14" cx="132" cy="45" r="22" fill="#FFDC38"/>
<circle id="pupil_14" cx="132" cy="45" r="16" fill="#65318F"/>
<circle id="lower_cornea_flare_14" cx="122" cy="57" r="2" fill="white"/>
<circle id="upper_cornea_flare_14" cx="140" cy="35" r="4" fill="white"/>
</g>
<g id="lacrimal_caruncle_14">
<path id="caruncle_part_14" d="M167 43C167 43 172 45 174 45C172 45 167 47 167 47C167 47 167 47 167 45C167 43 167 43 167 43Z" fill="#8EC549"/>
<circle id="caruncle_14" cx="167" cy="45" r="2" fill="#8EC549"/>
<circle id="caruncle_flare_14" cx="168" cy="44" r="1" fill="white"/>
</g>
<path id="eyelid_14" d="M132 23C116 23 104 45 88 45C104 45 116 31 132 31C148 31 160 45 176 45C160 45 148 23 132 23Z" fill="#079348"/>
<path id="outline_14" d="M132 23C116 23 104 45 88 45C104 45 116 67 132 67C148 67 160 45 176 45C160 45 148 23 132 23Z" stroke="#079348"/>
</g>
<g id="eye_15">
<g id="cornea_15">
<path id="sclera_15" d="M220 23C204 23 192 45 176 45C192 45 204 67 220 67C236 67 248 45 264 45C248 45 236 23 220 23Z" fill="#EB307C"/>
<circle id="iris_15" cx="220" cy="45" r="22" fill="#FFDC38"/>
<circle id="pupil_15" cx="220" cy="45" r="16" fill="#65318F"/>
<circle id="lower_cornea_flare_15" cx="210" cy="57" r="2" fill="white"/>
<circle id="upper_cornea_flare_15" cx="228" cy="35" r="4" fill="white"/>
</g>
<g id="lacrimal_caruncle_15">
<path id="caruncle_part_15" d="M255 43C255 43 260 45 262 45C260 45 255 47 255 47C255 47 255 47 255 45C255 43 255 43 255 43Z" fill="#8EC549"/>
<circle id="caruncle_15" cx="255" cy="45" r="2" fill="#8EC549"/>
<circle id="caruncle_flare_15" cx="256" cy="44" r="1" fill="white"/>
</g>
<path id="eyelid_15" d="M220 23C204 23 192 45 176 45C192 45 204 31 220 31C236 31 248 45 264 45C248 45 236 23 220 23Z" fill="#079348"/>
<path id="outline_15" d="M220 23C204 23 192 45 176 45C192 45 204 67 220 67C236 67 248 45 264 45C248 45 236 23 220 23Z" stroke="#079348"/>
</g>
<g id="eye_16">
<g id="cornea_16">
<path id="sclera_16" d="M88 1C72 1 60 23 44 23C60 23 72 45 88 45C104 45 116 23 132 23C116 23 104 1 88 1Z" fill="#EB307C"/>
<circle id="iris_16" cx="88" cy="23" r="22" fill="#FFDC38"/>
<circle id="pupil_16" cx="88" cy="23" r="16" fill="#65318F"/>
<circle id="lower_cornea_flare_16" cx="78" cy="35" r="2" fill="white"/>
<circle id="upper_cornea_flare_16" cx="96" cy="13" r="4" fill="white"/>
</g>
<g id="lacrimal_caruncle_16">
<path id="caruncle_part_16" d="M123 21C123 21 128 23 130 23C128 23 123 25 123 25C123 25 123 25 123 23C123 21 123 21 123 21Z" fill="#8EC549"/>
<circle id="caruncle_16" cx="123" cy="23" r="2" fill="#8EC549"/>
<circle id="caruncle_flare_16" cx="124" cy="22" r="1" fill="white"/>
</g>
<path id="eyelid_16" d="M88 1C72 1 60 23 44 23C60 23 72 9 88 9C104 9 116 23 132 23C116 23 104 1 88 1Z" fill="#079348"/>
<path id="outline_16" d="M88 1C72 1 60 23 44 23C60 23 72 45 88 45C104 45 116 23 132 23C116 23 104 1 88 1Z" stroke="#079348"/>
</g>
<g id="eye_17">
<g id="cornea_17">
<path id="sclera_17" d="M176 1C160 1 148 23 132 23C148 23 160 45 176 45C192 45 204 23 220 23C204 23 192 1 176 1Z" fill="#EB307C"/>
<circle id="iris_17" cx="176" cy="23" r="22" fill="#FFDC38"/>
<circle id="pupil_17" cx="176" cy="23" r="16" fill="#65318F"/>
<circle id="lower_cornea_flare_17" cx="166" cy="35" r="2" fill="white"/>
<circle id="upper_cornea_flare_17" cx="184" cy="13" r="4" fill="white"/>
</g>
<g id="lacrimal_caruncle_17">
<path id="caruncle_part_17" d="M211 21C211 21 216 23 218 23C216 23 211 25 211 25C211 25 211 25 211 23C211 21 211 21 211 21Z" fill="#8EC549"/>
<circle id="caruncle_17" cx="211" cy="23" r="2" fill="#8EC549"/>
<circle id="caruncle_flare_17" cx="212" cy="22" r="1" fill="white"/>
</g>
<path id="eyelid_17" d="M176 1C160 1 148 23 132 23C148 23 160 9 176 9C192 9 204 23 220 23C204 23 192 1 176 1Z" fill="#079348"/>
<path id="outline_17" d="M176 1C160 1 148 23 132 23C148 23 160 45 176 45C192 45 204 23 220 23C204 23 192 1 176 1Z" stroke="#079348"/>
</g>
</g>
</svg>
